<?xml version="1.0" encoding="utf-8"?>
<!-- Generator: Adobe Illustrator 24.1.1, SVG Export Plug-In . SVG Version: 6.00 Build 0)  -->
<svg version="1.1" id="Layer_1" xmlns="http://www.w3.org/2000/svg" xmlns:xlink="http://www.w3.org/1999/xlink" x="0px" y="0px"
	 viewBox="0 0 567 756" style="enable-background:new 0 0 567 756;" xml:space="preserve">
<style type="text/css">
	.st0{fill:none;stroke:#878787;stroke-width:0.25;stroke-miterlimit:1;}
	.st1{fill:none;stroke:#648AC5;stroke-width:0.25;stroke-miterlimit:1;}
	.st2{fill:none;stroke:#000000;stroke-width:0.5;stroke-linecap:square;}
	.st3{font-family:'OTNEJMScalaSansLF-Bold';}
	.st4{font-size:7.5px;}
	.st5{fill:none;stroke:#000000;stroke-width:0.5;}
	.st6{font-family:'OTNEJMScalaSansLF';}
	.st7{font-size:7px;}
	.st8{font-size:6.9999px;}
</style>
<polyline class="st0" points="159.07,507.83 178.4,507.83 178.4,507.18 183.94,507.18 183.94,506.2 189.41,506.2 189.41,505.55 
	194.95,505.55 194.95,504.9 197.73,504.9 197.73,504.24 200.42,504.24 200.42,503.92 205.96,503.92 205.96,503.59 208.74,503.59 
	208.74,503.26 211.51,503.26 211.51,502.61 214.2,502.61 214.2,502.29 219.75,502.29 219.75,501.55 222.52,501.55 222.52,500.57 
	225.29,500.57 225.29,499.92 227.98,499.92 227.98,499.59 230.76,499.59 230.76,499.27 233.53,499.27 233.53,498.94 236.3,498.94 
	236.3,498.61 239.08,498.61 239.08,496.66 241.77,496.66 241.77,494.62 244.54,494.62 244.54,493.64 250.09,493.64 250.09,493.31 
	252.86,493.31 252.86,492.99 255.55,492.99 255.55,492.25 258.32,492.25 258.32,491.27 261.1,491.27 261.1,489.89 263.87,489.89 
	263.87,489.23 269.34,489.23 269.34,488.82 272.11,488.82 272.11,488.17 274.88,488.17 274.88,487.77 277.65,487.77 277.65,486.05 
	280.43,486.05 280.43,485.32 283.12,485.32 283.12,484.67 288.66,484.67 288.66,483.93 291.44,483.93 291.44,482.14 294.21,482.14 
	294.21,481.4 296.9,481.4 296.9,480.34 299.67,480.34 299.67,478.87 305.22,478.87 305.22,478.22 308,478.22 308,477.49 
	310.69,477.49 310.69,476.34 313.46,476.34 313.46,475.61 316.23,475.61 316.23,473.41 321.78,473.41 321.78,472.27 324.47,472.27 
	324.47,471.53 330.02,471.53 330.02,468.43 332.79,468.43 332.79,467.29 335.56,467.29 335.56,465.74 338.25,465.74 338.25,464.6 
	341.03,464.6 341.03,463.78 343.8,463.78 343.8,462.64 346.57,462.64 346.57,461.01 349.35,461.01 349.35,459.78 352.04,459.78 
	352.04,457.66 354.81,457.66 354.81,456.44 357.58,456.44 357.58,454.73 360.36,454.73 360.36,451.71 363.13,451.71 363.13,449.51 
	365.82,449.51 365.82,448.61 368.59,448.61 368.59,446.24 371.37,446.24 371.37,442.98 374.14,442.98 374.14,437.84 376.91,437.84 
	376.91,436.94 379.6,436.94 379.6,434.49 382.38,434.49 382.38,432.46 385.15,432.46 385.15,430.33 387.92,430.33 387.92,427.07 
	390.7,427.07 390.7,425.36 393.39,425.36 393.39,421.44 396.16,421.44 396.16,419.73 398.93,419.73 398.93,417.94 401.71,417.94 
	401.71,417.28 404.48,417.28 404.48,415.98 407.17,415.98 407.17,413.86 409.94,413.86 409.94,412.39 412.72,412.39 412.72,408.64 
	415.49,408.64 415.49,405.62 418.26,405.62 418.26,403.98 420.96,403.98 420.96,403.09 423.73,403.09 423.73,401.13 429.27,401.13 
	429.27,397.79 432.05,397.79 432.05,394.44 434.74,394.44 434.74,393.3 437.51,393.3 437.51,390.77 443.06,390.77 443.06,387.67 
	445.83,387.67 445.83,382.29 448.52,382.29 448.52,380.33 451.29,380.33 451.29,374.21 454.07,374.21 454.07,365.48 459.61,365.48 
	459.61,362.3 465.08,362.3 465.08,357.32 470.62,357.32 470.62,350.55 476.09,350.55 476.09,340.6 484.41,340.6 "/>
<polyline class="st1" points="159.07,507.83 170.16,507.83 170.16,507.51 183.94,507.51 183.94,506.85 186.63,506.85 186.63,506.53 
	194.95,506.53 194.95,506.2 214.2,506.2 214.2,505.88 239.08,505.88 239.08,505.55 294.21,505.55 294.21,505.22 324.47,505.22 
	324.47,504.81 332.79,504.81 332.79,504.41 343.8,504.41 343.8,504 349.35,504 349.35,503.59 352.04,503.59 352.04,503.18 
	357.58,503.18 357.58,502.77 376.91,502.77 376.91,501.39 429.27,501.39 429.27,500.25 451.29,500.25 451.29,498.21 484.41,498.21 
	"/>
<line class="st2" x1="154.16" y1="507.85" x2="154.16" y2="339.13"/>
<text transform="matrix(-6.123234e-17 -1 1 -6.123234e-17 132.8649 461.1851)" class="st3 st4">Cumulative Event Rate (%)</text>
<line class="st2" x1="490.05" y1="507.85" x2="154.16" y2="507.85"/>
<line class="st5" x1="154.16" y1="339.13" x2="150.91" y2="339.13"/>
<text transform="matrix(1 0 0 1 141.3398 341.1191)" class="st6 st7">3.5</text>
<line class="st5" x1="154.16" y1="387.34" x2="150.91" y2="387.34"/>
<text transform="matrix(1 0 0 1 141.3398 389.3232)" class="st6 st7">2.5</text>
<line class="st5" x1="154.16" y1="363.23" x2="150.91" y2="363.23"/>
<text transform="matrix(1 0 0 1 141.3398 365.2217)" class="st6 st7">3.0</text>
<line class="st5" x1="154.16" y1="411.44" x2="150.91" y2="411.44"/>
<text transform="matrix(1 0 0 1 141.3398 413.4258)" class="st6 st7">2.0</text>
<line class="st5" x1="154.16" y1="435.54" x2="150.91" y2="435.54"/>
<text transform="matrix(1 0 0 1 141.3467 437.5273)" class="st6 st7">1.5</text>
<line class="st5" x1="154.16" y1="483.74" x2="150.91" y2="483.74"/>
<text transform="matrix(1 0 0 1 141.3398 485.7314)" class="st6 st7">0.5</text>
<line class="st5" x1="154.16" y1="459.64" x2="150.91" y2="459.64"/>
<text transform="matrix(1 0 0 1 141.3467 461.6299)" class="st6 st7">1.0</text>
<line class="st5" x1="154.16" y1="507.85" x2="150.91" y2="507.85"/>
<text transform="matrix(1 0 0 1 141.3398 509.834)" class="st6 st7">0.0</text>
<text transform="matrix(1 0 0 1 157.312 517.7197)" class="st6 st8">0</text>
<line class="st5" x1="159.06" y1="507.85" x2="159.06" y2="511.1"/>
<text transform="matrix(1 0 0 1 183.1479 517.7197)" class="st6 st8">10</text>
<line class="st5" x1="186.65" y1="507.85" x2="186.65" y2="511.1"/>
<text transform="matrix(1 0 0 1 210.7271 517.7197)" class="st6 st8">20</text>
<line class="st5" x1="214.23" y1="507.85" x2="214.23" y2="511.1"/>
<text transform="matrix(1 0 0 1 265.8921 517.7197)" class="st6 st8">40</text>
<line class="st5" x1="269.39" y1="507.85" x2="269.39" y2="511.1"/>
<text transform="matrix(1 0 0 1 321.0576 517.7197)" class="st6 st8">60</text>
<line class="st5" x1="324.56" y1="507.85" x2="324.56" y2="511.1"/>
<text transform="matrix(1 0 0 1 376.2227 517.7197)" class="st6 st8">80</text>
<line class="st5" x1="379.72" y1="507.85" x2="379.72" y2="511.1"/>
<text transform="matrix(1 0 0 1 484.8066 517.7227)" class="st6 st8">120</text>
<line class="st5" x1="490.05" y1="507.85" x2="490.05" y2="511.1"/>
<text transform="matrix(1 0 0 1 280.958 530.1777)" class="st3 st4">Days since Randomization</text>
<text transform="matrix(1 0 0 1 238.3096 517.7197)" class="st6 st8">30</text>
<line class="st5" x1="241.81" y1="507.85" x2="241.81" y2="511.1"/>
<text transform="matrix(1 0 0 1 348.6396 517.7197)" class="st6 st8">70</text>
<line class="st5" x1="352.14" y1="507.85" x2="352.14" y2="511.1"/>
<text transform="matrix(1 0 0 1 293.4746 517.7197)" class="st6 st8">50</text>
<line class="st5" x1="296.97" y1="507.85" x2="296.97" y2="511.1"/>
<text transform="matrix(1 0 0 1 457.2266 517.7227)" class="st6 st8">110</text>
<line class="st5" x1="462.47" y1="507.85" x2="462.47" y2="511.1"/>
<text transform="matrix(1 0 0 1 429.6416 517.7227)" class="st6 st8">100</text>
<line class="st5" x1="434.89" y1="507.85" x2="434.89" y2="511.1"/>
<text transform="matrix(1 0 0 1 403.8047 517.7227)" class="st6 st8">90</text>
<line class="st5" x1="407.31" y1="507.85" x2="407.31" y2="511.1"/>
<text transform="matrix(1 0 0 1 436.6172 489.999)" class="st6 st7">mRNA-1273</text>
</svg>
