<?xml version="1.0" encoding="utf-8"?>
<!-- Generator: Adobe Illustrator 24.1.1, SVG Export Plug-In . SVG Version: 6.00 Build 0)  -->
<svg version="1.1" id="Layer_1" xmlns="http://www.w3.org/2000/svg" xmlns:xlink="http://www.w3.org/1999/xlink" x="0px" y="0px"
	 viewBox="0 0 441.33 337.67" style="enable-background:new 0 0 441.33 337.67;" xml:space="preserve">
<style type="text/css">
	.st0{fill:none;stroke:#000000;stroke-width:0.503;stroke-linecap:square;}
	.st1{font-family:'OTNEJMScalaSansLF-Bold';}
	.st2{font-size:7.5375px;}
	.st3{fill:none;stroke:#000000;stroke-width:0.503;}
	.st4{font-family:'OTNEJMScalaSansLF';}
	.st5{font-size:7.035px;}
	.st6{font-size:7.0349px;}
	.st7{fill:none;stroke:#C75036;stroke-width:0.25;stroke-miterlimit:10;}
	.st8{fill:none;stroke:#648AC5;stroke-width:0.25;stroke-miterlimit:10;}
</style>
<line class="st0" x1="37.44" y1="297.33" x2="37.44" y2="28.52"/>
<text transform="matrix(-6.123234e-17 -1 1 -6.123234e-17 14.2965 203.2126)" class="st1 st2">Cumulative Incidence (%)</text>
<line class="st0" x1="392.94" y1="297.33" x2="37.44" y2="297.33"/>
<line class="st3" x1="37.44" y1="28.52" x2="34.17" y2="28.52"/>
<text transform="matrix(1 0 0 1 24.5553 30.5221)" class="st4 st5">2.4</text>
<line class="st3" x1="37.44" y1="118.13" x2="34.17" y2="118.13"/>
<text transform="matrix(1 0 0 1 24.5622 120.1252)" class="st4 st5">1.6</text>
<line class="st3" x1="37.44" y1="73.32" x2="34.17" y2="73.32"/>
<text transform="matrix(1 0 0 1 24.5553 75.3234)" class="st4 st5">2.0</text>
<line class="st3" x1="37.44" y1="162.93" x2="34.17" y2="162.93"/>
<text transform="matrix(1 0 0 1 24.5622 164.9264)" class="st4 st5">1.2</text>
<line class="st3" x1="37.44" y1="207.73" x2="34.17" y2="207.73"/>
<text transform="matrix(1 0 0 1 24.5553 209.7282)" class="st4 st5">0.8</text>
<line class="st3" x1="37.44" y1="252.53" x2="34.17" y2="252.53"/>
<text transform="matrix(1 0 0 1 24.5553 254.5295)" class="st4 st5">0.4</text>
<line class="st3" x1="37.44" y1="297.33" x2="34.17" y2="297.33"/>
<text transform="matrix(1 0 0 1 24.5553 299.3307)" class="st4 st5">0.0</text>
<text transform="matrix(1 0 0 1 35.6799 307.256)" class="st4 st6">0</text>
<line class="st3" x1="37.44" y1="297.33" x2="37.44" y2="300.6"/>
<text transform="matrix(1 0 0 1 387.6706 307.2589)" class="st4 st6">119</text>
<line class="st3" x1="392.94" y1="297.33" x2="392.94" y2="300.6"/>
<text transform="matrix(1 0 0 1 366.7594 307.2589)" class="st4 st6">112</text>
<line class="st3" x1="372.03" y1="297.33" x2="372.03" y2="300.6"/>
<text transform="matrix(1 0 0 1 345.8444 307.2589)" class="st4 st6">105</text>
<line class="st3" x1="351.12" y1="297.33" x2="351.12" y2="300.6"/>
<text transform="matrix(1 0 0 1 326.6862 307.2589)" class="st4 st6">98</text>
<line class="st3" x1="330.2" y1="297.33" x2="330.2" y2="300.6"/>
<text transform="matrix(1 0 0 1 305.778 307.2589)" class="st4 st6">91</text>
<line class="st3" x1="309.29" y1="297.33" x2="309.29" y2="300.6"/>
<text transform="matrix(1 0 0 1 284.8629 307.2589)" class="st4 st6">84</text>
<line class="st3" x1="288.38" y1="297.33" x2="288.38" y2="300.6"/>
<text transform="matrix(1 0 0 1 263.9518 307.2589)" class="st4 st6">77</text>
<line class="st3" x1="267.47" y1="297.33" x2="267.47" y2="300.6"/>
<text transform="matrix(1 0 0 1 243.0397 307.2589)" class="st4 st6">70</text>
<line class="st3" x1="246.56" y1="297.33" x2="246.56" y2="300.6"/>
<text transform="matrix(1 0 0 1 222.1286 307.2589)" class="st4 st6">63</text>
<line class="st3" x1="225.64" y1="297.33" x2="225.64" y2="300.6"/>
<text transform="matrix(1 0 0 1 201.2155 307.2589)" class="st4 st6">56</text>
<line class="st3" x1="204.73" y1="297.33" x2="204.73" y2="300.6"/>
<text transform="matrix(1 0 0 1 159.3923 307.2589)" class="st4 st6">42</text>
<line class="st3" x1="162.91" y1="297.33" x2="162.91" y2="300.6"/>
<text transform="matrix(1 0 0 1 117.5685 307.2589)" class="st4 st6">28</text>
<line class="st3" x1="121.08" y1="297.33" x2="121.08" y2="300.6"/>
<text transform="matrix(1 0 0 1 180.3039 307.2589)" class="st4 st6">49</text>
<line class="st3" x1="183.82" y1="297.33" x2="183.82" y2="300.6"/>
<text transform="matrix(1 0 0 1 138.4806 307.2589)" class="st4 st6">35</text>
<line class="st3" x1="142" y1="297.33" x2="142" y2="300.6"/>
<text transform="matrix(1 0 0 1 96.6603 307.2589)" class="st4 st6">21</text>
<line class="st3" x1="100.17" y1="297.33" x2="100.17" y2="300.6"/>
<text transform="matrix(1 0 0 1 75.7487 307.2589)" class="st4 st6">14</text>
<line class="st3" x1="79.26" y1="297.33" x2="79.26" y2="300.6"/>
<text transform="matrix(1 0 0 1 56.592 307.2589)" class="st4 st6">7</text>
<line class="st3" x1="58.35" y1="297.33" x2="58.35" y2="300.6"/>
<text transform="matrix(1 0 0 1 187.5387 319.776)" class="st1 st2">Days after Dose 1</text>
<text transform="matrix(1 0 0 1 338.1149 260.3708)" class="st4 st5">BNT162b2</text>
<text transform="matrix(1 0 0 1 346.4577 40.2668)" class="st4 st5">Placebo</text>
<polyline class="st7" points="369.17,264.44 324.51,264.44 324.51,269.29 273.43,269.29 273.43,270.85 232.2,270.85 232.2,271.54 
	219.78,271.54 219.78,272.66 207.37,272.66 207.37,273.52 199.02,273.52 199.02,274.16 197.95,274.16 197.95,274.86 165.85,274.86 
	165.85,275.5 142.31,275.5 142.31,276.03 118.28,276.03 118.28,276.62 115.12,276.62 115.12,277.11 90.87,277.11 90.87,277.85 
	79.59,277.85 79.59,278.5 76.38,278.5 76.38,279.09 75.42,279.09 75.42,279.67 70.12,279.67 70.12,280.42 67.4,280.42 67.4,281.55 
	64.13,281.55 64.13,283.31 61.24,283.31 61.24,284.81 58.34,284.81 58.34,287.65 55.14,287.65 55.14,290.75 52.31,290.75 
	52.31,292.14 49.63,292.14 49.63,293.37 46.53,293.37 46.53,294.6 43.27,294.6 43.27,297.33 39.25,297.33 "/>
<polyline class="st8" points="38.56,297.33 40.09,297.33 41.73,297.33 43.26,297.33 43.26,294.6 44.55,294.6 44.55,293.37 
	46.53,293.37 46.53,292.14 49.42,292.14 49.42,289.73 50.95,289.73 51.2,289.73 52.74,289.73 52.74,287.65 55.09,287.65 
	55.09,286.36 56.62,286.36 56.81,286.36 58.34,286.36 58.34,284.81 61.35,284.81 61.35,283.28 61.35,280.78 61.35,279.25 
	62.88,279.25 65.59,279.25 67.13,279.25 67.13,277.69 68.66,277.69 68.8,277.69 70.34,277.69 70.34,275.39 73.12,275.39 
	73.12,274.54 73.12,273.68 74.65,273.68 74.85,273.68 76.38,273.68 76.38,272.29 76.38,272.15 76.38,270.67 76.38,269.13 
	79.25,269.13 79.25,268.22 80.79,268.22 81.33,268.22 82.86,268.22 82.86,267.69 85.16,267.69 85.16,266.88 87.03,266.88 
	87.03,265.33 88.64,265.33 88.64,264.05 91.69,264.05 91.69,262.23 94.36,262.23 94.36,260.46 97.41,260.46 97.41,259.61 
	100.46,259.61 100.46,258.59 102.87,258.59 102.87,256.18 104.4,256.18 104.81,256.18 106.35,256.18 106.35,253.88 108.97,253.88 
	108.97,251.05 110.5,251.05 110.7,251.05 112.23,251.05 112.23,249.12 114.96,249.12 114.96,247.14 117.05,247.14 117.05,246.12 
	118.58,246.12 118.89,246.12 120.42,246.12 120.42,244.89 121.95,244.89 122.36,244.89 123.9,244.89 123.9,243.36 123.9,243.16 
	123.9,241.63 125.43,241.63 125.52,241.63 127.06,241.63 127.06,240.1 127.05,238.24 127.05,236.71 130.1,236.71 130.1,235 
	132.73,235 132.73,233.44 134.65,233.44 134.65,231.52 137.17,231.52 137.17,230.66 138.51,230.66 138.7,230.66 139.97,230.66 
	141.5,230.66 141.5,230.13 143.04,230.13 143.5,230.13 145.03,230.13 145.03,228.52 147.76,228.52 147.76,226.54 149.3,226.54 
	149.44,226.54 150.97,226.54 150.97,225.36 152.74,225.36 152.74,224.08 153.97,224.08 153.97,222.55 153.97,222.46 153.97,220.92 
	157.02,220.92 157.02,218.3 158.55,218.3 158.94,218.3 160.87,218.3 161.64,218.3 163.17,218.3 163.17,217.45 166.11,217.45 
	166.11,215.68 167.77,215.68 167.77,214.08 169.11,214.08 169.11,211.51 170.65,211.51 171.59,211.51 173.13,211.51 173.13,210.79 
	175.43,210.79 175.43,208.94 177.89,208.94 177.89,207.17 179.42,207.17 179.62,207.17 181.15,207.17 181.15,204.66 183.81,204.66 
	183.81,202.73 186.66,202.73 186.66,201.07 188.2,201.07 188.55,201.07 190.09,201.07 190.09,199.54 190.09,198.59 190.09,197.06 
	192.87,197.06 192.87,195.94 194.05,195.94 194.05,194.17 195.71,194.17 195.71,192.35 198.65,192.35 198.65,190.69 200.18,190.69 
	200.22,190.69 201.75,190.69 201.75,188.39 204.73,188.39 204.73,186.86 204.73,186.45 204.73,184.91 207.69,184.91 207.69,182.35 
	210.69,182.35 210.69,180.79 212.22,180.79 214.08,180.79 215.61,180.79 215.61,179.26 215.61,178.58 215.61,177.05 216.41,177.05 
	217.14,177.05 218.52,177.05 220.05,177.05 220.05,175.51 220.05,175.05 220.05,173.52 222.89,173.52 222.89,171.43 225.64,171.43 
	225.64,169.9 225.64,169.81 225.64,168.27 227.17,168.27 230.07,168.27 231.61,168.27 231.61,166.74 231.61,166.38 231.61,164.85 
	233.14,164.85 233.23,164.85 234.76,164.85 234.76,163.56 236.1,163.56 236.1,162.55 237.81,162.55 237.81,161.01 237.81,160.02 
	237.81,158.48 240.81,158.48 240.81,156.13 243.81,156.13 243.81,154.59 243.81,154.4 243.81,152.86 246.55,152.86 246.55,151.33 
	246.55,151.13 246.55,149.6 249.16,149.6 249.16,148.26 250.6,148.26 250.6,147.57 252.63,147.57 252.63,144.62 255.42,144.62 
	255.42,143.09 255.42,142.63 255.42,141.09 256.95,141.09 257.7,141.09 261.43,141.09 262.93,141.09 264.46,141.09 264.46,139.56 
	264.46,137.54 264.46,136.01 267.46,136.01 267.46,135.21 270.24,135.21 270.24,133.49 271.77,133.49 274.32,133.49 275.86,133.49 
	275.86,132.42 278.05,132.42 278.05,130.93 279.58,130.93 280.53,130.93 282.06,130.93 282.06,129.37 283.6,129.37 283.79,129.37 
	285.33,129.37 285.33,127.84 285.33,127.59 285.33,126.06 288.37,126.06 288.37,123.49 289.91,123.49 290.11,123.49 291.64,123.49 
	291.64,121.95 291.64,120.53 291.64,118.99 294.64,118.99 294.64,117.01 296.17,117.01 296.21,117.01 297.74,117.01 297.74,114.77 
	300.36,114.77 300.36,113.23 300.36,112.79 300.36,110.56 300.36,109.67 300.36,108.13 301.91,108.13 301.91,107.33 303.73,107.33 
	303.73,105.51 305.27,105.51 307.75,105.51 309.28,105.51 309.28,102.73 310.58,102.73 310.58,101.66 312.3,101.66 312.3,100.12 
	312.3,99.7 312.3,97.61 312.3,96.77 312.3,95.24 313.83,95.24 314.56,95.24 318.19,95.24 319.64,95.24 321.18,95.24 321.18,93.7 
	321.18,91.95 321.18,90.42 322.71,90.42 322.8,90.42 324.33,90.42 324.33,88.89 324.33,87.92 324.33,83.08 324.33,81.15 
	324.33,79.61 325.87,79.61 328.66,79.61 330.2,79.61 330.2,78.08 330.2,77.22 330.2,67.77 330.2,66.06 330.2,64.52 331.73,64.52 
	332.45,64.52 344.79,64.52 346.24,64.52 347.77,64.52 347.77,62.99 347.77,62.21 347.77,48.9 347.77,47.33 347.77,45.8 349.3,45.8 
	350.02,45.8 366.33,45.8 367.75,45.8 369.28,45.8 "/>
</svg>
