<?xml version="1.0" encoding="utf-8"?>
<!-- Generator: Adobe Illustrator 24.1.1, SVG Export Plug-In . SVG Version: 6.00 Build 0)  -->
<svg version="1.1" id="Layer_1" xmlns="http://www.w3.org/2000/svg" xmlns:xlink="http://www.w3.org/1999/xlink" x="0px" y="0px"
	 viewBox="0 0 208.15 156.02" style="enable-background:new 0 0 208.15 156.02;" xml:space="preserve">
<style type="text/css">
	.st0{fill:none;stroke:#000000;stroke-width:0.503;stroke-linecap:square;}
	.st1{fill:none;stroke:#000000;stroke-width:0.503;}
	.st2{font-family:'OTNEJMScalaSansLF';}
	.st3{font-size:7.035px;}
	.st4{font-size:7.0349px;}
	.st5{fill:none;stroke:#C75036;stroke-width:0.503;stroke-miterlimit:10;}
	.st6{fill:none;stroke:#648AC5;stroke-width:0.503;stroke-miterlimit:10;}
</style>
<line class="st0" x1="31.64" y1="122.11" x2="31.64" y2="16.23"/>
<line class="st0" x1="189.5" y1="122.56" x2="31.64" y2="122.56"/>
<line class="st1" x1="31.64" y1="16.23" x2="28.37" y2="16.23"/>
<text transform="matrix(1 0 0 1 18.7533 18.228)" class="st2 st3">0.5</text>
<line class="st1" x1="31.64" y1="36.92" x2="28.37" y2="36.92"/>
<text transform="matrix(1 0 0 1 18.7533 38.9199)" class="st2 st3">0.4</text>
<line class="st1" x1="31.64" y1="57.61" x2="28.37" y2="57.61"/>
<text transform="matrix(1 0 0 1 18.7533 59.6113)" class="st2 st3">0.3</text>
<line class="st1" x1="31.64" y1="78.3" x2="28.37" y2="78.3"/>
<text transform="matrix(1 0 0 1 18.7533 80.3032)" class="st2 st3">0.2</text>
<line class="st1" x1="31.64" y1="99" x2="28.37" y2="99"/>
<text transform="matrix(1 0 0 1 18.7602 100.9951)" class="st2 st3">0.1</text>
<line class="st1" x1="31.64" y1="119.69" x2="28.37" y2="119.69"/>
<text transform="matrix(1 0 0 1 18.7533 121.687)" class="st2 st3">0.0</text>
<text transform="matrix(1 0 0 1 31.0063 132.457)" class="st2 st4">0</text>
<line class="st1" x1="32.76" y1="122.53" x2="32.76" y2="125.8"/>
<text transform="matrix(1 0 0 1 156.0717 132.4897)" class="st2 st4">18</text>
<line class="st1" x1="159.58" y1="122.56" x2="159.58" y2="125.83"/>
<text transform="matrix(1 0 0 1 113.7983 132.4897)" class="st2 st4">12</text>
<line class="st1" x1="117.31" y1="122.56" x2="117.31" y2="125.83"/>
<text transform="matrix(1 0 0 1 177.2084 132.4897)" class="st2 st4">21</text>
<line class="st1" x1="180.72" y1="122.56" x2="180.72" y2="125.83"/>
<text transform="matrix(1 0 0 1 134.935 132.4897)" class="st2 st4">15</text>
<line class="st1" x1="138.45" y1="122.56" x2="138.45" y2="125.83"/>
<text transform="matrix(1 0 0 1 94.4164 132.4897)" class="st2 st4">9</text>
<line class="st1" x1="96.17" y1="122.56" x2="96.17" y2="125.83"/>
<text transform="matrix(1 0 0 1 73.2797 132.4897)" class="st2 st4">6</text>
<line class="st1" x1="75.04" y1="122.56" x2="75.04" y2="125.83"/>
<text transform="matrix(1 0 0 1 52.143 132.4599)" class="st2 st4">3</text>
<line class="st1" x1="53.9" y1="122.53" x2="53.9" y2="125.8"/>
<polyline class="st5" points="33.11,120.39 47.14,120.39 47.14,114.33 53.9,114.33 53.9,112.66 60.92,112.66 60.92,111.3 
	68.14,111.3 68.14,108.63 75.26,108.63 75.26,102.62 82.33,102.62 82.33,99.84 89.39,99.84 89.39,93.73 96.76,93.73 96.76,91.36 
	103.58,91.36 103.58,87.98 110.39,87.98 110.39,85.86 124.88,85.86 124.88,85.4 131.29,85.4 131.29,84.6 132.1,84.6 132.1,83.89 
	152.75,83.89 152.75,83.08 160.14,83.08 160.14,81.82 189.73,81.82 "/>
<polyline class="st6" points="33.4,120.39 34.98,120.39 35.43,120.39 37.65,120.39 38.54,120.39 40.12,120.39 40.12,119.28 
	41.7,119.28 42.19,119.28 44.59,119.28 45.56,119.28 47.14,119.28 47.14,117.7 47.14,115.91 47.14,114.33 48.72,114.33 
	49.17,114.33 51.42,114.33 52.32,114.33 53.9,114.33 53.9,111.3 55.48,111.3 55.98,111.3 58.49,111.3 59.49,111.3 61.07,111.3 
	61.07,109.72 61.07,108.04 61.07,106.46 62.65,106.46 63.15,106.46 65.66,106.46 66.66,106.46 68.24,106.46 68.24,104.87 
	68.24,103.04 68.24,101.46 69.82,101.46 70.3,101.46 72.71,101.46 73.68,101.46 75.26,101.46 75.26,98.78 76.84,98.78 77.33,98.78 
	79.81,98.78 80.79,98.78 82.38,98.78 82.38,95.75 83.96,95.75 84.44,95.75 86.88,95.75 87.86,95.75 89.44,95.75 89.44,94.17 
	89.44,93.7 89.44,91.32 89.44,90.37 89.44,88.79 91.02,88.79 91.56,88.79 94.22,88.79 95.28,88.79 96.86,88.79 96.86,87.98 
	98.44,87.98 98.89,87.98 101.11,87.98 102,87.98 103.58,87.98 103.58,86.4 103.58,85.12 103.58,83.54 105.16,83.54 105.65,83.54 
	108.09,83.54 109.06,83.54 110.65,83.54 110.65,81.96 110.65,81.74 110.65,80.16 112.23,80.16 112.66,80.16 114.85,80.16 
	115.73,80.15 117.31,80.15 117.31,78.57 117.31,77.4 117.31,75.81 118.89,75.81 119.4,75.81 121.93,75.81 122.95,75.81 
	124.53,75.81 124.53,74.23 124.53,73.57 124.53,70.24 124.53,68.91 124.53,67.33 126.11,67.33 126.56,67.33 128.81,67.33 
	129.71,67.33 131.29,67.33 131.29,66.68 132,66.68 132,65.92 133.58,65.92 136.63,65.92 138.21,65.92 138.21,64.1 139.79,64.1 
	140.3,64.1 142.83,64.1 143.84,64.1 145.43,64.1 145.43,61.83 147.01,61.83 147.54,61.83 150.2,61.83 151.27,61.83 152.85,61.83 
	152.85,60.25 152.85,59.02 152.85,57.44 154.43,57.44 154.88,57.44 157.11,57.44 158,57.44 159.58,57.44 159.58,54.66 161.17,54.66 
	161.66,54.66 164.15,54.66 165.15,54.66 166.73,54.66 166.73,51.53 168.31,51.53 168.81,51.53 171.28,51.53 172.27,51.53 
	173.85,51.53 173.85,50.27 175.43,50.27 175.89,50.27 178.21,50.27 179.14,50.27 180.72,50.27 180.72,48.35 182.3,48.35 
	182.82,48.35 185.41,48.35 186.45,48.35 188.03,48.35 188.03,46.77 188.03,44.83 188.03,43.25 189.74,43.25 "/>
</svg>
